<?xml version="1.0" standalone="no"?>
<!DOCTYPE svg PUBLIC "-//W3C//DTD SVG 20010904//EN"
 "http://www.w3.org/TR/2001/REC-SVG-20010904/DTD/svg10.dtd">
<svg version="1.0" xmlns="http://www.w3.org/2000/svg"
 width="512.000000pt" height="512.000000pt" viewBox="0 0 512.000000 512.000000"
 preserveAspectRatio="xMidYMid meet">

<g transform="translate(0.000000,512.000000) scale(0.100000,-0.100000)"
fill="#000000" stroke="none">
<path d="M2390 5105 c-223 -36 -417 -135 -591 -302 -506 -488 -499 -1320 16
-1800 542 -505 1383 -349 1736 322 221 419 186 936 -88 1317 -66 92 -202 227
-288 285 -233 157 -512 221 -785 178z"/>
<path d="M2295 2405 c-854 -112 -1562 -738 -1774 -1568 -45 -176 -62 -318 -68
-590 l-6 -247 2113 0 2113 0 -6 248 c-6 271 -23 413 -68 589 -194 761 -819
1366 -1584 1535 -217 47 -506 61 -720 33z"/>
</g>
</svg>
